<svg width="214" height="214" viewBox="0 0 214 214" fill="none" xmlns="http://www.w3.org/2000/svg">
<rect width="214" height="214" rx="15" fill="url(#paint0_linear)"/>
<path d="M106.64 59C90.608 59 77.5652 72.0432 77.5652 88.0753C77.5652 96.4024 81.1477 104.344 87.3931 109.866C88.0858 110.479 88.4816 111.358 88.4816 112.281V124.885H103.416V105.293C98.095 103.869 94.1648 99.0054 94.1648 93.2406C94.1648 86.3613 99.7615 80.7653 106.641 80.7653C113.519 80.7653 119.115 86.3613 119.115 93.2406C119.115 95.0211 117.672 96.4648 115.891 96.4648C114.111 96.4648 112.667 95.0211 112.667 93.2406C112.667 89.9174 109.964 87.2129 106.641 87.2129C103.317 87.2129 100.613 89.9174 100.613 93.2406C100.613 96.5646 103.317 99.2682 106.641 99.2682C108.421 99.2682 109.864 100.712 109.864 102.492V124.885H124.797V112.282C124.797 111.358 125.194 110.479 125.886 109.866C132.132 104.344 135.713 96.4024 135.713 88.0753C135.714 72.0432 122.671 59 106.64 59Z" fill="white"/>
<path d="M88.4825 136.41C88.4825 139.587 91.0663 142.172 94.2438 142.172H119.036C122.212 142.172 124.797 139.587 124.797 136.41V131.332H88.4825V136.41Z" fill="white"/>
<path d="M106.64 154C109.917 154 112.666 151.694 113.35 148.619H99.9295C100.613 151.694 103.362 154 106.64 154Z" fill="white"/>
<path d="M65.6791 91.3611C65.6791 89.5806 64.2354 88.1369 62.4549 88.1369H55.2241C53.4437 88.1369 52 89.5806 52 91.3611C52 93.1416 53.4437 94.5853 55.2241 94.5853H62.4549C64.2362 94.5853 65.6791 93.1416 65.6791 91.3611Z" fill="white"/>
<path d="M68.4342 71.1268L61.8345 68.1703C60.2096 67.4427 58.3027 68.1695 57.5751 69.7945C56.8474 71.4195 57.5742 73.3273 59.1992 74.0549L65.7988 77.0114C66.2271 77.2026 66.6745 77.2933 67.1152 77.2933C68.3468 77.2933 69.5227 76.5839 70.0591 75.3872C70.7868 73.7622 70.0591 71.8544 68.4342 71.1268Z" fill="white"/>
<path d="M65.7988 104.453L59.1992 107.41C57.5742 108.137 56.8466 110.045 57.5751 111.67C58.1106 112.867 59.2865 113.577 60.5189 113.577C60.9589 113.577 61.4071 113.486 61.8345 113.294L68.4342 110.338C70.0599 109.61 70.7868 107.703 70.0591 106.078C69.3306 104.453 67.4238 103.726 65.7988 104.453Z" fill="white"/>
<path d="M157.776 86.8794H150.545C148.765 86.8794 147.321 88.3231 147.321 90.1037C147.321 91.8842 148.765 93.3279 150.545 93.3279H157.776C159.556 93.3279 161 91.8842 161 90.1037C161 88.3231 159.556 86.8794 157.776 86.8794Z" fill="white"/>
<path d="M153.801 107.41L147.201 104.453C145.576 103.726 143.669 104.453 142.941 106.078C142.213 107.703 142.941 109.61 144.566 110.338L151.165 113.294C151.593 113.486 152.04 113.577 152.481 113.577C153.713 113.577 154.889 112.867 155.425 111.67C156.153 110.045 155.426 108.137 153.801 107.41Z" fill="white"/>
<path d="M145.886 77.2933C146.326 77.2933 146.774 77.2026 147.201 77.0114L153.801 74.0549C155.426 73.3273 156.153 71.4195 155.425 69.7945C154.697 68.1695 152.79 67.4427 151.165 68.1703L144.566 71.1268C142.941 71.8544 142.213 73.7622 142.941 75.3872C143.477 76.5839 144.653 77.2933 145.886 77.2933Z" fill="white"/>
<defs>
<linearGradient id="paint0_linear" x1="185.541" y1="174.869" x2="-18.3483" y2="112.581" gradientUnits="userSpaceOnUse">
<stop stop-color="#8162A0"/>
<stop offset="1" stop-color="#2AB2AB"/>
</linearGradient>
</defs>
</svg>
