<svg width="214" height="214" viewBox="0 0 214 214" fill="none" xmlns="http://www.w3.org/2000/svg">
<rect width="214" height="214" rx="15" fill="url(#paint0_linear)"/>
<path d="M151.136 134.938L138.773 122.423C138.308 122.941 137.83 123.449 137.338 123.947C130.116 131.257 120.739 135.59 110.658 136.34L130.204 156.126C130.767 156.696 131.52 157 132.289 157C132.63 157 132.974 156.94 133.304 156.818C134.382 156.417 135.133 155.419 135.227 154.261L136.297 141.106L149.294 140.022C150.438 139.927 151.424 139.167 151.82 138.076C152.215 136.984 151.949 135.76 151.136 134.938Z" fill="white"/>
<path d="M77.6616 123.947C77.1694 123.45 76.6916 122.941 76.2273 122.424L63.8638 134.938C63.0513 135.76 62.7852 136.984 63.1802 138.075C63.5759 139.167 64.5618 139.926 65.7059 140.022L78.7025 141.106L79.7736 154.261C79.867 155.419 80.6178 156.417 81.6956 156.817C82.7742 157.218 83.9832 156.947 84.7957 156.126L104.342 136.34C94.2603 135.591 84.8824 131.257 77.6616 123.947Z" fill="white"/>
<path d="M143.801 93.7447C143.801 73.4833 127.516 57 107.5 57C87.4828 57 71.1977 73.4833 71.1977 93.7447C71.1977 114.006 87.4828 130.49 107.499 130.49C127.516 130.49 143.801 114.006 143.801 93.7447ZM79.6884 93.7447C79.6884 78.2227 92.1642 65.5938 107.5 65.5938C122.834 65.5938 135.311 78.2227 135.311 93.7447C135.311 109.267 122.834 121.896 107.5 121.896C92.1642 121.896 79.6884 109.267 79.6884 93.7447Z" fill="white"/>
<path d="M107.5 115.928C119.583 115.928 129.414 105.977 129.414 93.7447C129.414 81.5133 119.583 71.5622 107.5 71.5622C95.415 71.5622 85.5841 81.5133 85.5841 93.7447C85.5841 105.977 95.415 115.928 107.5 115.928ZM104.551 85.9894C104.551 84.3415 105.872 83.0048 107.5 83.0048C109.128 83.0048 110.447 84.3415 110.447 85.9894V101.501C110.447 103.149 109.128 104.485 107.5 104.485C105.872 104.485 104.551 103.149 104.551 101.501V85.9894Z" fill="white"/>
<defs>
<linearGradient id="paint0_linear" x1="185.541" y1="174.869" x2="-18.3483" y2="112.581" gradientUnits="userSpaceOnUse">
<stop stop-color="#8162A0"/>
<stop offset="1" stop-color="#2AB2AB"/>
</linearGradient>
</defs>
</svg>
