<svg width="214" height="214" viewBox="0 0 214 214" fill="none" xmlns="http://www.w3.org/2000/svg">
<rect width="214" height="214" rx="15" fill="url(#paint0_linear)"/>
<path d="M95.7707 136.463V148.067H88.6507C87.0078 148.067 85.6757 149.395 85.6757 151.033C85.6757 152.672 87.0078 154 88.6507 154H124.348C125.991 154 127.323 152.672 127.323 151.033C127.323 149.395 125.991 148.067 124.348 148.067H117.228V136.463H95.7707Z" fill="white"/>
<path d="M105.438 99.7299V102.124H120.807V86.7971H118.406C117.183 93.3421 112 98.5114 105.438 99.7299Z" fill="white"/>
<path d="M99.4888 93.6344V83.8309C99.4888 82.1924 100.82 80.8639 102.463 80.8639H112.294C111.015 76.6578 107.093 73.5875 102.463 73.5875C96.7994 73.5875 92.1918 78.1826 92.1918 83.8309C92.1918 88.4474 95.2712 92.359 99.4888 93.6344Z" fill="white"/>
<path d="M155 116.329V63.077C155 60.8289 153.166 59 150.912 59H62.088C59.8338 59 58 60.8289 58 63.077V116.329H155ZM102.463 67.6536C110.391 67.6536 117.004 73.3565 118.406 80.8639H123.781C125.424 80.8639 126.756 82.1924 126.756 83.8309V105.091C126.756 106.729 125.424 108.057 123.781 108.057H102.463C100.82 108.057 99.4888 106.729 99.4888 105.091V99.7299C91.961 98.332 86.2426 91.7368 86.2426 83.8309C86.2426 74.9108 93.5188 67.6536 102.463 67.6536Z" fill="white"/>
<path d="M105.438 86.7971V93.6344C108.713 92.6439 111.301 90.0637 112.294 86.7971H105.438Z" fill="white"/>
<path d="M58 122.262V126.454C58 128.701 59.8338 130.53 62.088 130.53H150.912C153.166 130.53 155 128.701 155 126.454V122.262H58Z" fill="white"/>
<defs>
<linearGradient id="paint0_linear" x1="185.541" y1="174.869" x2="-18.3483" y2="112.581" gradientUnits="userSpaceOnUse">
<stop stop-color="#8162A0"/>
<stop offset="1" stop-color="#2AB2AB"/>
</linearGradient>
</defs>
</svg>
