<svg width="214" height="214" viewBox="0 0 214 214" fill="none" xmlns="http://www.w3.org/2000/svg">
<rect width="214" height="214" rx="15" fill="url(#paint0_linear)"/>
<path d="M136.101 154H151.132C152.716 154 154 152.716 154 151.132V126.58C154 124.996 152.716 123.712 151.132 123.712H136.101V154Z" fill="white"/>
<path d="M130.55 123.712H119.555L112.651 130.616V154H130.55V123.712Z" fill="white"/>
<path d="M107.1 136.168L89.778 153.489C89.6038 153.664 89.4259 153.833 89.2466 154H107.1V136.168Z" fill="white"/>
<path d="M95.8395 106.508L112.374 123.043L125.03 110.386L103.614 88.9698L95.8395 96.7439V106.508Z" fill="white"/>
<path d="M128.956 106.461L139.584 95.8331C140.704 94.7128 140.704 92.897 139.584 91.7768L122.223 74.4157C121.103 73.2962 119.287 73.2962 118.167 74.4157L107.539 85.0441L128.956 106.461Z" fill="white"/>
<path d="M108.449 126.968L95.8395 114.359V138.856C95.8395 139.102 95.8331 139.348 95.8244 139.592L108.449 126.968Z" fill="white"/>
<path d="M60 83.4498H90.2879V101.349H60V83.4498Z" fill="white"/>
<path d="M90.2879 77.899V62.8679C90.2879 61.2844 89.0042 60 87.42 60H62.8679C61.2844 60 60 61.2844 60 62.8679V77.899H90.2879Z" fill="white"/>
<path d="M60 106.9H90.2879V124.799H60V106.9Z" fill="white"/>
<path d="M75.1443 154C83.495 154 90.2879 147.206 90.2879 138.856V130.35H60V138.856C60 147.206 66.7937 154 75.1443 154ZM75.1443 138.293C76.6999 138.293 77.8523 139.565 77.9198 141.069C77.9865 142.568 76.5959 143.844 75.1443 143.844C73.5881 143.844 72.4356 142.573 72.3682 141.069C72.3015 139.57 73.6921 138.293 75.1443 138.293Z" fill="white"/>
<defs>
<linearGradient id="paint0_linear" x1="185.541" y1="174.869" x2="-18.3483" y2="112.581" gradientUnits="userSpaceOnUse">
<stop stop-color="#8162A0"/>
<stop offset="1" stop-color="#2AB2AB"/>
</linearGradient>
</defs>
</svg>
