<svg width="45" height="45" viewBox="0 0 45 45" fill="none" xmlns="http://www.w3.org/2000/svg">
<path d="M17.098 22.5132C17.098 25.4732 19.5335 27.9081 22.4944 27.9081C25.4553 27.9081 27.8909 25.4732 27.8909 22.5132C27.8909 19.5532 25.4553 17.1183 22.4944 17.1183C19.5335 17.1183 17.098 19.5532 17.098 22.5132Z" fill="white"/>
<path d="M5.01554 12.4395C9.88667 4.03681 20.0587 0.312881 29.0846 3.4639L28.4161 5.27812C25.0731 4.13229 21.3959 3.94132 17.7664 4.89618C9.12257 7.23557 3.48734 15.3518 4.34695 24.232L6.68701 23.9932C5.92291 16.2589 10.8418 9.19301 18.3873 7.14008C25.9327 5.13489 33.717 8.81107 36.9644 15.877L39.0657 14.9221C37.2509 11.0072 34.1946 7.9517 30.5651 6.18523L32.0933 2.17484L31.0426 1.69742C20.6796 -2.59942 8.59725 1.50645 3.00978 11.2459C-2.62544 20.9854 -0.142125 33.494 8.74052 40.3212L10.1732 38.4593C2.19793 32.3482 0.00114409 21.1287 5.01554 12.4395Z" fill="white"/>
<path d="M37.4896 9.04978C43.3159 15.5428 44.3188 24.9958 39.9252 32.5869C34.9108 41.3238 24.1179 45 14.8054 41.1329L13.8981 43.2813C16.6679 44.4271 19.5811 45 22.4464 45C30.2784 45 37.8717 40.8941 41.9787 33.7805C46.8498 25.33 45.7514 14.7789 39.2566 7.52202L37.4896 9.04978Z" fill="white"/>
<path d="M5.92293 30.0565C8.93157 36.6928 15.4742 40.7509 22.4466 40.7509C24.0225 40.7509 25.5985 40.5599 27.2222 40.1302C35.8183 37.7908 41.4535 29.6746 40.5939 20.7945L38.2539 21.0332C39.018 28.7675 34.0991 35.8811 26.5536 37.8863C19.4379 39.796 12.0357 36.5973 8.50177 30.1998L10.2687 29.4359C11.4626 31.5365 13.2296 33.3508 15.4264 34.5921C17.6232 35.8811 20.0588 36.5018 22.4466 36.5018C26.2193 36.5018 29.9443 34.974 32.6664 32.014L33.4782 31.1069L30.1831 28.29C30.7561 27.5262 31.2337 26.6191 31.568 25.6642C32.9052 21.797 31.6635 17.4525 28.4161 14.9221L26.9834 16.7363C29.419 18.6938 30.3741 21.9403 29.3712 24.9003C28.3683 27.8604 25.5507 29.8178 22.4466 29.8656V32.2049C24.7389 32.2049 26.8879 31.3933 28.5594 29.961L30.0398 31.2501C26.3148 34.5443 20.9184 35.1172 16.5726 32.5869C16.4293 32.4914 16.2383 32.3959 16.095 32.3004L18.7216 29.0062L17.8142 28.29C15.3787 26.3326 14.4235 23.0861 15.4264 20.1261C16.4293 17.166 19.2469 15.2086 22.3511 15.1608V12.8214C20.0588 12.8214 17.862 13.6808 16.1905 15.0653L14.8056 13.7763C18.5306 10.482 23.927 9.90913 28.3206 12.4395C33.0484 15.1608 35.2452 20.7467 33.6215 25.9507L35.866 26.6191C37.824 20.3648 35.1975 13.6808 29.5145 10.3866C23.8315 7.09231 16.7158 8.19039 12.2267 13.0124L11.4149 13.8718L14.6623 16.7363C14.0892 17.5002 13.6117 18.3596 13.3251 19.3144C12.1312 22.7996 13.0386 26.6668 15.6174 29.2926L14.3758 30.8204C11.2716 27.8126 10.03 23.3248 11.3671 19.028L9.1226 18.3596C8.16747 21.3674 8.31074 24.5184 9.31362 27.2875L5.34986 28.9584L5.92293 30.0565Z" fill="white"/>
</svg>
